<svg width="23" height="23" viewBox="0 0 23 23" fill="none" xmlns="http://www.w3.org/2000/svg">
<path d="M14.6978 4.26207C14.6723 4.02023 14.7131 3.76848 14.8294 3.53483C15.1535 2.88335 15.9419 2.61928 16.5903 2.94502L18.1789 3.7432L20.1612 0.755388C20.5633 0.149343 21.3782 -0.0144222 21.9813 0.389608C22.5845 0.793638 22.7475 1.61247 22.3454 2.21851L20.5451 4.93198L21.8403 5.5827C22.4886 5.90844 22.7514 6.70064 22.4272 7.35212C22.3368 7.53379 22.2103 7.68534 22.0608 7.80237C22.3757 9.19906 22.3013 10.8556 21.831 12.5584C20.7445 16.4927 17.8345 19.8483 13.7934 21.2019C9.37723 22.681 5.65151 22.0571 2.72776 20.0985C1.64727 19.3747 0.914117 18.638 0.515801 18.1043C-0.169864 17.1857 0.559295 15.8865 1.6964 16.0007C6.42436 16.4758 8.52856 14.8692 10.454 10.7123C10.5816 10.4369 10.7082 10.1541 10.8759 9.77241C10.924 9.6628 10.9797 9.5355 11.0835 9.29834C11.1677 9.1063 11.2304 8.9638 11.2922 8.8247C12.3239 6.50355 13.3503 4.97936 14.6978 4.26207Z" fill="#FF6633"/>
</svg>
