<svg width="27" height="26" viewBox="0 0 27 26" fill="none" xmlns="http://www.w3.org/2000/svg">
<path d="M7.21484 14.1179V21.9382C7.21484 23.0351 8.13829 23.9243 9.27734 23.9243H17.5273C18.6664 23.9243 19.5898 23.0351 19.5898 21.9382V9.72656L8.35788 9.72656C7.61098 11.0712 7.21484 12.5786 7.21484 14.1179Z" fill="#FFF6DE"/>
<path fill-rule="evenodd" clip-rule="evenodd" d="M2.13736 5.4742C2.46439 4.96548 3.15777 4.80838 3.68605 5.1233L25.3423 18.033C25.8706 18.3479 26.0337 19.0156 25.7067 19.5244C25.3797 20.0331 24.6863 20.1902 24.158 19.8753L2.50176 6.96554C1.97347 6.65062 1.81032 5.98292 2.13736 5.4742Z" fill="#FF6633"/>
<path fill-rule="evenodd" clip-rule="evenodd" d="M8.15527 2.07552C8.15527 1.47721 8.65895 0.992188 9.28027 0.992188H17.8145C18.4358 0.992188 18.9395 1.47721 18.9395 2.07552C18.9395 2.63863 18.4933 3.10139 17.9228 3.15389L17.9601 5.92368C17.9601 6.24728 18.1321 6.75778 18.4931 7.40032C18.8357 8.01021 19.2732 8.60956 19.6369 9.0766C19.6712 9.12061 19.7019 9.16708 19.7288 9.21559C20.5626 10.7166 21.0049 12.3995 21.0049 14.1179V21.9382C21.0049 23.6334 19.5778 25.0077 17.8174 25.0077H9.27734C7.51697 25.0077 6.08984 23.6334 6.08984 21.9382V14.1179C6.08984 12.3995 6.53209 10.7166 7.36588 9.21559C7.39283 9.16708 7.42357 9.12061 7.45785 9.0766C7.82157 8.60956 8.25902 8.01021 8.60165 7.40032C8.96262 6.75778 9.13469 6.24728 9.13469 5.92368V5.90962L9.1719 3.15389C8.60143 3.10139 8.15527 2.63863 8.15527 2.07552ZM11.422 3.15885L11.3847 5.93147C11.3823 6.81401 10.9811 7.71831 10.5806 8.43125C10.1796 9.14514 9.69337 9.81353 9.31144 10.3075C8.67629 11.4779 8.33984 12.7844 8.33984 14.1179V21.9382C8.33984 22.4368 8.75961 22.841 9.27734 22.841H17.8174C18.3351 22.841 18.7549 22.4368 18.7549 21.9382V14.1179C18.7549 12.7844 18.4184 11.4779 17.7833 10.3075C17.4013 9.81353 16.9151 9.14513 16.5141 8.43125C16.1136 7.71832 15.7124 6.81403 15.7101 5.9315L15.6727 3.15885H11.422Z" fill="#1D1D1F"/>
</svg>
