<svg width="293" height="41" viewBox="0 0 293 41" fill="none" xmlns="http://www.w3.org/2000/svg">
<path d="M10.7974 9.00114C10.296 10.2046 9.66086 11.4749 9.05914 12.4443H5.31514C5.95029 11.3077 6.51857 10.1711 6.98657 9.00114H10.7974ZM13.3714 17.8263H10.3629V14.4834H13.3714V17.8263ZM13.3714 23.2083H10.3629V19.7651H13.3714V23.2083ZM5.54914 17.8263V14.4834H8.45743V17.8263H5.54914ZM8.45743 19.7651V23.2083H5.54914V19.7651H8.45743ZM3.47657 15.2857V25.2809H15.5109V12.4443H11.3991C12.2683 11.0403 13.1374 9.40228 13.806 7.86457L12.3351 6.89514L11.9006 7.02885H7.75543C8.05629 6.12628 8.35714 5.22371 8.59114 4.35457L6.28457 4.02028C5.51571 7.16257 3.87771 11.2743 1.30371 14.3831C1.83857 14.6506 2.64086 15.3191 3.042 15.8206L3.47657 15.2857ZM2.94171 34.574C4.64657 32.936 5.28171 30.0277 5.616 27.2197L3.81086 26.7851C3.54343 29.426 2.84143 32.0669 1.30371 33.6046L2.94171 34.574ZM6.81943 27.0526C7.15372 29.0249 7.32086 31.5654 7.22057 33.2034L9.02572 33.0029C9.09257 31.3314 8.92543 28.8243 8.52429 26.8186L6.81943 27.0526ZM9.89486 27.0191C10.5969 28.8911 11.1986 31.298 11.3657 32.9026L13.104 32.468C12.9034 30.8969 12.3017 28.49 11.4994 26.6514L9.89486 27.0191ZM13.0037 26.7183C13.9731 28.3897 14.9091 30.6629 15.3103 32.1671L16.9817 31.4651C16.5806 29.9943 15.6111 27.788 14.6083 26.1166L13.0037 26.7183ZM28.6483 22.172V25.5149H20.2577V22.172H28.6483ZM20.2577 30.9971V27.5206H28.6483V30.9971H20.2577ZM17.9846 34.6074H20.2577V33.1366H28.6483V34.4403H30.9883V20.0326H17.9846V34.6074ZM21.7286 15.2523C19.89 15.2523 19.5891 15.0517 19.5891 14.0154V11.1406C23.4334 10.238 27.7123 9.00114 30.6206 7.59714L28.8823 5.85885C26.7094 7.02885 23.0657 8.23228 19.5891 9.13486V4.05371H17.2826V14.0154C17.2826 16.7231 18.1517 17.4251 21.5614 17.4251H28.3474C31.1554 17.4251 31.9243 16.4223 32.2251 12.6783C31.5566 12.5111 30.5871 12.1434 30.0523 11.7423C29.9186 14.7509 29.6511 15.2523 28.2137 15.2523H21.7286Z" fill="black"/>
<path d="M38.7423 11.3474C40.3265 10.0495 41.2522 9.40054 41.5195 9.40054H57.6669C57.5429 9.41963 57.2518 9.62958 56.7937 10.0304C56.3356 10.4312 56.0159 10.7032 55.8346 10.8464C55.3956 11.1804 55.0807 11.3474 54.8898 11.3474H49.0206V24.4457C49.0206 25.6005 48.8249 26.5548 48.4337 27.3088C48.2619 27.6332 48.071 27.8814 47.8611 28.0531H52.585C52.4514 28.0722 52.1556 28.2822 51.6975 28.683C51.2394 29.0838 50.9197 29.3558 50.7384 29.499C50.2994 29.833 49.9845 30 49.7936 30H44.8119C45.3845 29.4847 45.7424 29.0504 45.8856 28.6973C46.1146 28.1343 46.2291 27.428 46.2291 26.5787V11.3474H38.7423ZM80.1846 28.0531C80.0701 28.0627 79.7599 28.2917 79.2541 28.7403C78.2711 29.5801 77.6508 30 77.3932 30H72.5546C73.0604 29.4369 73.3801 28.9884 73.5138 28.6544C73.7237 28.1199 73.8287 27.428 73.8287 26.5787V20.2371H63.1782V24.4457C63.1782 25.3524 63.1353 25.9679 63.0494 26.2924C62.9158 26.7886 62.6152 27.3756 62.1476 28.0531H66.7427C66.6091 28.0722 66.3133 28.2822 65.8552 28.683C65.3971 29.0838 65.0726 29.3558 64.8817 29.499C64.4523 29.833 64.1421 30 63.9513 30H59.0984C59.8046 29.4465 60.215 28.6878 60.3295 27.7239C60.3677 27.3899 60.3868 27.0081 60.3868 26.5787V11.3474H57.7099L58.2682 10.9036C59.4802 9.90157 60.2198 9.40054 60.487 9.40054H66.7427C66.6282 9.40054 66.3371 9.60572 65.8695 10.0161C65.4019 10.4265 65.0726 10.7032 64.8817 10.8464C64.4523 11.1804 64.1421 11.3474 63.9513 11.3474H63.1782V18.2902H73.8287V11.3474H71.1518L71.6957 10.9036C72.9173 9.90157 73.6665 9.40054 73.9432 9.40054H80.1846C80.0701 9.40054 79.779 9.60572 79.3114 10.0161C78.8438 10.4265 78.5193 10.7032 78.338 10.8464C77.899 11.1804 77.584 11.3474 77.3932 11.3474H76.6201V24.4457C76.6201 25.3524 76.5772 25.9679 76.4913 26.2924C76.3577 26.8077 76.0618 27.3946 75.6038 28.0531H80.1846ZM81.5159 11.3474C83.1001 10.0495 84.0258 9.40054 84.293 9.40054H96.1173C96.0124 9.41008 95.7022 9.63913 95.1869 10.0877C94.6715 10.5267 94.2755 10.8464 93.9987 11.0468C93.7315 11.2472 93.512 11.3474 93.3402 11.3474H86.9843V18.2902H93.9271C93.8221 18.2998 93.6504 18.4095 93.4118 18.6195C93.1732 18.8199 92.9107 19.0394 92.6244 19.278C91.8705 19.9174 91.3743 20.2371 91.1357 20.2371H86.9843V24.9038C86.9843 25.9631 86.822 26.8316 86.4976 27.5092C86.3735 27.7764 86.2113 27.9577 86.0109 28.0531H93.9701C94.514 28.0531 95.0771 27.9291 95.6593 27.681L96.5468 27.3088C96.0601 27.8909 95.0198 28.6067 93.4261 29.456C92.739 29.8187 92.2761 30 92.0375 30H82.9045C83.7634 28.8357 84.1928 27.6953 84.1928 26.5787V20.2371H82.1887C83.019 19.569 83.687 19.0489 84.1928 18.6767V11.3474H81.5159ZM115.371 12.7216C115.696 12.3972 115.858 12.1634 115.858 12.0202C115.858 11.8675 115.786 11.7387 115.643 11.6337C115.51 11.5287 115.333 11.4381 115.113 11.3617C114.904 11.2854 114.665 11.2233 114.398 11.1756C114.14 11.1184 113.887 11.0754 113.639 11.0468C113.143 10.9895 112.718 10.9609 112.365 10.9609C112.021 10.9609 111.621 10.9943 111.163 11.0611C110.714 11.1279 110.299 11.2567 109.917 11.4476C109.049 11.8866 108.614 12.5403 108.614 13.4088C108.614 14.2772 108.772 14.9739 109.087 15.4988C109.411 16.0141 109.831 16.4436 110.347 16.7871C110.862 17.1307 111.449 17.417 112.107 17.6461C112.775 17.8751 113.458 18.0898 114.154 18.2902C114.851 18.4906 115.529 18.7054 116.187 18.9344C116.855 19.1635 117.447 19.4545 117.962 19.8076C119.117 20.5997 119.694 21.702 119.694 23.1144C119.694 24.4982 119.107 25.7818 117.934 26.9652C116.932 27.9768 115.6 28.8071 113.94 29.456C112.441 30.0477 111.005 30.3436 109.631 30.3436C108.781 30.3436 108.008 30.2434 107.312 30.0429C106.625 29.8425 106.138 29.666 105.852 29.5133C105.184 29.1793 104.85 28.7832 104.85 28.3251C104.85 27.5903 105.942 26.6264 108.128 25.4335C107.841 25.7484 107.698 26.0538 107.698 26.3496C107.698 26.6359 107.789 26.8841 107.97 27.094C108.161 27.2944 108.404 27.471 108.7 27.6237C108.996 27.7668 109.325 27.8861 109.688 27.9816C110.06 28.077 110.428 28.1533 110.79 28.2106C111.458 28.3156 112.064 28.3681 112.608 28.3681C113.152 28.3681 113.687 28.3204 114.212 28.2249C114.737 28.1199 115.204 27.9434 115.615 27.6953C116.54 27.1417 117.003 26.2685 117.003 25.0756C117.003 23.2242 115.829 21.8499 113.482 20.9528C112.814 20.7047 112.126 20.4709 111.42 20.2514C110.724 20.0224 110.041 19.7885 109.373 19.55C108.705 19.3114 108.113 19.0251 107.598 18.6911C106.434 17.9276 105.852 16.9208 105.852 15.6706C105.852 14.6303 106.439 13.5567 107.612 12.4497C108.624 11.4953 109.898 10.6746 111.435 9.98746C112.895 9.32897 114.14 8.99972 115.171 8.99972C116.096 8.99972 116.841 9.08561 117.404 9.25739C117.967 9.42917 118.32 9.56278 118.463 9.65821C118.616 9.7441 118.692 9.84908 118.692 9.97315C118.692 10.0877 118.625 10.2308 118.492 10.4026C118.358 10.5648 118.186 10.7414 117.977 10.9323C117.767 11.1231 117.533 11.314 117.275 11.5049C117.027 11.6957 116.779 11.8723 116.531 12.0345C115.958 12.4067 115.572 12.6358 115.371 12.7216ZM145.39 9.38623C145.19 9.44349 144.97 9.57709 144.731 9.78705C144.493 9.997 144.245 10.2165 143.987 10.4455C143.338 11.0372 142.875 11.3331 142.599 11.3331H141.539V24.4314C141.539 25.4812 141.324 26.4308 140.895 27.2801C140.752 27.576 140.58 27.8289 140.38 28.0388H145.104C144.875 28.1056 144.522 28.3585 144.044 28.7975C143.577 29.227 143.219 29.5324 142.971 29.7137C142.732 29.895 142.513 29.9857 142.312 29.9857H137.617C138.189 29.184 138.519 28.5589 138.605 28.1104C138.7 27.6619 138.753 27.2658 138.762 26.9222C137.245 28.0197 136.014 28.7784 135.069 29.1984C133.294 29.9905 131.729 30.3865 130.373 30.3865C129.018 30.3865 127.935 30.2195 127.124 29.8855C126.313 29.5515 125.664 29.0743 125.177 28.454C124.251 27.2897 123.788 25.5432 123.788 23.2146V11.3331H121.369C121.484 11.2472 121.67 11.0993 121.927 10.8893C122.185 10.6698 122.462 10.4455 122.758 10.2165C123.493 9.66298 123.955 9.38623 124.146 9.38623H130.116C129.887 9.45303 129.534 9.70593 129.056 10.1449C128.589 10.5744 128.231 10.8798 127.983 11.0611C127.744 11.2424 127.525 11.3331 127.324 11.3331H126.566V22.3987C126.566 24.3455 127.157 25.8486 128.341 26.9079C129.476 27.91 131.032 28.411 133.007 28.411C134.353 28.411 135.856 27.9959 137.517 27.1656C137.994 26.927 138.409 26.6741 138.762 26.4069V11.3331H136.071C136.185 11.2472 136.371 11.0993 136.629 10.8893C136.896 10.6698 137.178 10.4455 137.474 10.2165C138.209 9.66298 138.671 9.38623 138.862 9.38623H145.39ZM156.627 12.7216C156.952 12.3972 157.114 12.1634 157.114 12.0202C157.114 11.8675 157.042 11.7387 156.899 11.6337C156.766 11.5287 156.589 11.4381 156.37 11.3617C156.16 11.2854 155.921 11.2233 155.654 11.1756C155.396 11.1184 155.143 11.0754 154.895 11.0468C154.399 10.9895 153.974 10.9609 153.621 10.9609C153.278 10.9609 152.877 10.9943 152.419 11.0611C151.97 11.1279 151.555 11.2567 151.173 11.4476C150.305 11.8866 149.871 12.5403 149.871 13.4088C149.871 14.2772 150.028 14.9739 150.343 15.4988C150.667 16.0141 151.087 16.4436 151.603 16.7871C152.118 17.1307 152.705 17.417 153.364 17.6461C154.032 17.8751 154.714 18.0898 155.411 18.2902C156.107 18.4906 156.785 18.7054 157.443 18.9344C158.111 19.1635 158.703 19.4545 159.218 19.8076C160.373 20.5997 160.951 21.702 160.951 23.1144C160.951 24.4982 160.364 25.7818 159.19 26.9652C158.188 27.9768 156.856 28.8071 155.196 29.456C153.698 30.0477 152.261 30.3436 150.887 30.3436C150.038 30.3436 149.265 30.2434 148.568 30.0429C147.881 29.8425 147.394 29.666 147.108 29.5133C146.44 29.1793 146.106 28.7832 146.106 28.3251C146.106 27.5903 147.198 26.6264 149.384 25.4335C149.098 25.7484 148.954 26.0538 148.954 26.3496C148.954 26.6359 149.045 26.8841 149.226 27.094C149.417 27.2944 149.661 27.471 149.957 27.6237C150.252 27.7668 150.582 27.8861 150.944 27.9816C151.316 28.077 151.684 28.1533 152.047 28.2106C152.715 28.3156 153.321 28.3681 153.865 28.3681C154.409 28.3681 154.943 28.3204 155.468 28.2249C155.993 28.1199 156.46 27.9434 156.871 27.6953C157.796 27.1417 158.259 26.2685 158.259 25.0756C158.259 23.2242 157.085 21.8499 154.738 20.9528C154.07 20.7047 153.383 20.4709 152.676 20.2514C151.98 20.0224 151.297 19.7885 150.629 19.55C149.961 19.3114 149.37 19.0251 148.854 18.6911C147.69 17.9276 147.108 16.9208 147.108 15.6706C147.108 14.6303 147.695 13.5567 148.869 12.4497C149.88 11.4953 151.154 10.6746 152.691 9.98746C154.151 9.32897 155.396 8.99972 156.427 8.99972C157.353 8.99972 158.097 9.08561 158.66 9.25739C159.223 9.42917 159.576 9.56278 159.719 9.65821C159.872 9.7441 159.948 9.84908 159.948 9.97315C159.948 10.0877 159.882 10.2308 159.748 10.4026C159.614 10.5648 159.443 10.7414 159.233 10.9323C159.023 11.1231 158.789 11.314 158.531 11.5049C158.283 11.6957 158.035 11.8723 157.787 12.0345C157.214 12.4067 156.828 12.6358 156.627 12.7216ZM185.229 28.0531C185.114 28.0627 184.804 28.2917 184.298 28.7403C183.316 29.5801 182.695 30 182.438 30H177.599C178.105 29.4369 178.425 28.9884 178.558 28.6544C178.768 28.1199 178.873 27.428 178.873 26.5787V20.2371H168.223V24.4457C168.223 25.3524 168.18 25.9679 168.094 26.2924C167.96 26.7886 167.66 27.3756 167.192 28.0531H171.787C171.653 28.0722 171.358 28.2822 170.9 28.683C170.441 29.0838 170.117 29.3558 169.926 29.499C169.497 29.833 169.186 30 168.996 30H164.143C164.849 29.4465 165.259 28.6878 165.374 27.7239C165.412 27.3899 165.431 27.0081 165.431 26.5787V11.3474H162.754L163.313 10.9036C164.525 9.90157 165.264 9.40054 165.531 9.40054H171.787C171.673 9.40054 171.381 9.60572 170.914 10.0161C170.446 10.4265 170.117 10.7032 169.926 10.8464C169.497 11.1804 169.186 11.3474 168.996 11.3474H168.223V18.2902H178.873V11.3474H176.196L176.74 10.9036C177.962 9.90157 178.711 9.40054 178.988 9.40054H185.229C185.114 9.40054 184.823 9.60572 184.356 10.0161C183.888 10.4265 183.564 10.7032 183.382 10.8464C182.943 11.1804 182.628 11.3474 182.438 11.3474H181.664V24.4457C181.664 25.3524 181.622 25.9679 181.536 26.2924C181.402 26.8077 181.106 27.3946 180.648 28.0531H185.229ZM186.603 11.3474C188.187 10.0495 189.113 9.40054 189.38 9.40054H195.908C195.784 9.41963 195.493 9.62958 195.035 10.0304C194.577 10.4312 194.252 10.7032 194.061 10.8464C193.632 11.1804 193.322 11.3474 193.131 11.3474H192.072V24.4457C192.072 26.0967 191.728 27.2992 191.041 28.0531H195.636C195.502 28.0722 195.207 28.2822 194.749 28.683C194.29 29.0838 193.966 29.3558 193.775 29.499C193.346 29.833 193.035 30 192.845 30H187.992C188.498 29.4942 188.817 29.0647 188.951 28.7116C189.17 28.1486 189.28 27.4376 189.28 26.5787V11.3474H186.603ZM214.947 21.368C214.289 21.7306 213.597 22.0026 212.871 22.1839C212.156 22.3653 211.545 22.4559 211.039 22.4559C210.533 22.4559 210.147 22.4464 209.88 22.4273C209.88 22.9617 209.88 23.4818 209.88 23.9876C209.889 24.4935 209.851 24.9802 209.765 25.4478C209.574 26.4976 209.102 27.366 208.348 28.0531L212.857 28.0245C212.724 28.0531 212.537 28.1724 212.299 28.3824C212.06 28.5923 211.803 28.8166 211.526 29.0552C210.81 29.6851 210.328 30 210.08 30H205.542C206.201 29.3988 206.611 28.893 206.773 28.4826C206.983 27.9195 207.088 27.1465 207.088 26.1635V11.3474H203.796C205.313 10.0495 206.239 9.40054 206.573 9.40054H214.26C215.949 9.40054 217.371 9.81568 218.526 10.646C219.814 11.5717 220.458 12.8553 220.458 14.4967C220.458 15.995 219.867 17.3741 218.683 18.6338C217.882 19.5022 216.636 20.4136 214.947 21.368ZM217.681 16.3577C217.681 13.0175 215.286 11.3474 210.495 11.3474H209.88V19.8219C210.233 19.8506 210.719 19.9412 211.34 20.0939C212.437 20.3612 213.296 20.4948 213.916 20.4948C214.546 20.4948 215.105 20.4184 215.591 20.2657C216.088 20.1035 216.488 19.8554 216.794 19.5213C217.385 18.8915 217.681 17.8369 217.681 16.3577ZM227.301 25.6053C227.301 26.6646 226.924 27.4805 226.17 28.0531H234.244C235.017 28.0531 235.599 27.9625 235.99 27.7812C236.391 27.5998 236.687 27.4328 236.878 27.2801C235.742 28.683 234.525 29.5515 233.228 29.8855C232.941 29.9618 232.65 30 232.354 30H223.078C223.613 29.4847 223.956 29.0552 224.109 28.7116C224.376 28.1009 224.51 27.3899 224.51 26.5787V11.3474H221.833L222.377 10.9036C223.598 9.90157 224.343 9.40054 224.61 9.40054H231.138C231.033 9.40054 230.746 9.60572 230.279 10.0161C229.811 10.4265 229.487 10.7032 229.305 10.8464C228.866 11.1804 228.551 11.3474 228.36 11.3474H227.301V25.6053ZM239.326 28.0675C239.393 28.0579 239.774 28.0531 240.471 28.0531C241.664 28.0531 242.542 27.9625 243.105 27.7812C243.678 27.5998 244.088 27.4328 244.336 27.2801C243.983 27.5473 243.659 27.7955 243.363 28.0245C242.723 28.5208 242.208 28.8786 241.817 29.0981C241.435 29.3176 241.053 29.4894 240.671 29.6135C240.29 29.728 239.898 29.8139 239.498 29.8712C238.906 29.9571 238.099 30 237.078 30H236.52C236.53 29.9905 236.539 29.9809 236.549 29.9714C236.549 29.9618 236.615 29.8855 236.749 29.7423C236.873 29.5992 237.059 29.394 237.307 29.1268C237.555 28.85 237.885 28.4397 238.295 27.8957C238.705 27.3517 239.149 26.6503 239.626 25.7914C240.113 24.9324 240.562 24.0592 240.972 23.1717C241.392 22.2746 241.793 21.368 242.175 20.4518C242.556 19.5356 242.948 18.6195 243.348 17.7033C243.759 16.7776 244.174 15.8471 244.594 14.9119C245.014 13.9671 245.329 13.2275 245.539 12.693C245.758 12.1586 245.882 11.8246 245.911 11.691C245.949 11.5574 246.006 11.4428 246.083 11.3474H244.995C243.22 11.3474 241.84 11.5478 240.858 11.9486C242.175 10.8034 243.277 10.0829 244.164 9.78705C244.975 9.52938 246.292 9.40054 248.115 9.40054H248.874C249.284 10.7652 249.695 12.149 250.105 13.5519C250.525 14.9548 250.945 16.3577 251.365 17.7606C252.281 20.8145 252.968 23.0285 253.426 24.4028C253.894 25.777 254.166 26.5978 254.242 26.865C254.328 27.1227 254.433 27.3565 254.557 27.5664C254.834 28.0245 255.278 28.2536 255.888 28.2536C256.222 28.2536 256.571 28.1772 256.933 28.0245C257.306 27.8718 257.592 27.7334 257.792 27.6094C257.449 27.867 257.143 28.1009 256.876 28.3108C256.189 28.8357 255.75 29.1602 255.559 29.2842C255.368 29.3988 255.177 29.5133 254.987 29.6278C254.796 29.7423 254.595 29.8473 254.385 29.9427C253.049 30.5344 252.147 30.3102 251.68 29.2699C251.346 28.5351 250.945 27.3612 250.477 25.7484C250.01 24.126 249.595 22.747 249.232 21.6113C248.43 22.1839 246.684 22.4512 243.993 22.413C243.649 22.413 243.353 22.413 243.105 22.413C242.027 24.5698 240.977 26.216 239.956 27.3517C239.87 27.4471 239.784 27.5473 239.698 27.6523C239.45 27.9386 239.326 28.077 239.326 28.0675ZM244.222 20.4232L247.056 20.4804C247.648 20.4804 248.249 20.4614 248.86 20.4232C248.421 19.0298 247.767 16.8969 246.898 14.0243C245.954 16.1907 244.995 18.3379 244.021 20.4661C244.136 20.4375 244.202 20.4232 244.222 20.4232ZM274.656 9.11424C275.352 9.28602 275.791 9.41486 275.973 9.50075C276.163 9.58664 276.259 9.67253 276.259 9.75842C276.259 9.83477 276.182 9.94452 276.03 10.0877C275.877 10.2308 275.686 10.3931 275.457 10.5744C275.228 10.7462 274.975 10.9323 274.698 11.1327C274.422 11.3331 274.159 11.5144 273.911 11.6766C273.319 12.0679 272.966 12.2827 272.852 12.3208C272.861 12.2827 272.933 12.2111 273.067 12.1061C273.315 11.9057 273.439 11.7816 273.439 11.7339C273.439 11.6766 273.415 11.6337 273.367 11.6051C273.329 11.5669 273.281 11.5383 273.224 11.5192C273.176 11.4905 273.129 11.4667 273.081 11.4476C273.033 11.4285 272.852 11.3617 272.537 11.2472C271.783 10.9513 270.7 10.8034 269.287 10.8034C267.875 10.8034 266.653 10.9704 265.623 11.3045C264.602 11.6289 263.733 12.1252 263.017 12.7932C261.538 14.177 260.798 16.1907 260.798 18.8342C260.798 21.5159 261.533 23.7825 263.003 25.6339C264.587 27.6189 266.668 28.6114 269.244 28.6114C270.953 28.6114 273.047 28.0675 275.529 26.9795C275.452 27.0463 275.381 27.1083 275.314 27.1656C275.219 27.2706 275.099 27.3803 274.956 27.4949C272.179 29.5753 269.302 30.6156 266.324 30.6156C263.757 30.6156 261.705 29.6469 260.169 27.7096C258.747 25.9059 258.036 23.6679 258.036 20.9958C258.036 19.6215 258.236 18.462 258.637 17.5172C259.047 16.5629 259.524 15.7135 260.068 14.9691C260.612 14.2247 261.228 13.5376 261.915 12.9077C262.612 12.2779 263.361 11.7148 264.163 11.2186C264.974 10.7128 265.814 10.2833 266.682 9.9302C268.467 9.2049 270.266 8.84225 272.079 8.84225C273.1 8.84225 273.959 8.93291 274.656 9.11424ZM277.49 11.3474C279.074 10.0495 280 9.40054 280.267 9.40054H292.091C291.986 9.41008 291.676 9.63913 291.161 10.0877C290.646 10.5267 290.249 10.8464 289.973 11.0468C289.705 11.2472 289.486 11.3474 289.314 11.3474H282.958V18.2902H289.901C289.796 18.2998 289.624 18.4095 289.386 18.6195C289.147 18.8199 288.885 19.0394 288.598 19.278C287.845 19.9174 287.348 20.2371 287.11 20.2371H282.958V24.9038C282.958 25.9631 282.796 26.8316 282.472 27.5092C282.348 27.7764 282.185 27.9577 281.985 28.0531H289.944C290.488 28.0531 291.051 27.9291 291.633 27.681L292.521 27.3088C292.034 27.8909 290.994 28.6067 289.4 29.456C288.713 29.8187 288.25 30 288.012 30H278.878C279.737 28.8357 280.167 27.6953 280.167 26.5787V20.2371H278.163C278.993 19.569 279.661 19.0489 280.167 18.6767V11.3474H277.49Z" fill="#FF0000"/>
</svg>
