<svg width="24" height="20" viewBox="0 0 24 20" fill="none" xmlns="http://www.w3.org/2000/svg">
<path d="M11.7956 18.4106C11.7984 18.7628 11.6658 19.0874 11.4455 19.3287C11.2137 19.5803 10.894 19.7381 10.5382 19.7494C10.1821 19.7609 9.85339 19.6238 9.61073 19.3914C9.37213 19.1608 9.21999 18.8454 9.20136 18.4936C9.15048 17.6578 9.12401 16.8495 9.12191 16.0689C9.10181 15.7832 9.07779 15.5049 9.04984 15.2339C4.61664 14.7001 1.7346 11.6376 0.576493 6.29978L0.25 4.79495L1.75124 4.68519C5.58205 4.40513 8.32806 5.88872 9.97039 8.98199C11.5927 3.24269 15.5351 0.25 21.7475 0.25H22.8733L23.0325 1.39152C23.0968 1.85249 23.1458 2.60811 23.1124 3.56592C23.0568 5.16025 22.778 6.75945 22.1985 8.27024C20.6293 12.3615 17.213 14.9524 11.7183 15.2824C11.7144 15.5202 11.7129 15.7616 11.714 16.0066C11.7681 16.7714 11.7954 17.5729 11.7956 18.4106Z" fill="#84C502"/>
</svg>
